#!OML:ASF G:\JayActor3\Patient Classification 1\Patient 1\Session 6\male.ASF
:FULLY-SPECIFIED
:DEGREES
1453
root -26.7366 16.4723 7.94713 10.3431 -152.09 -369.093
lowerback 4.55 -1.32109 -4.22501
upperback 4.67901 -2.20314 -3.67004
thorax 2.28111 -1.32159 -1.36861
lowerneck 10.06 11.3674 7.55278
upperneck -9.64984 15.647 -6.95528
head -3.34892 7.85456 -4.03867
rclavicle 2.37548e-014 4.01545e-014
rhumerus -35.7909 27.6887 -99.8778
rradius 71.8544
rwrist 12.9208
rhand -37.0976 0.466964
rfingers 7.12502
rthumb -10.1688 -29.2673
lclavicle 2.37548e-014 4.01545e-014
lhumerus -12.8643 -10.055 73.1075
lradius 77.987
lwrist 10.4539
lhand -8.99234 12.5918
lfingers 7.12502
lthumb 16.9538 41.8719
rfemur -43.1402 -6.92006 28.53
rtibia 27.03
rfoot 0.139962 -25.6729
rtoes -8.68097
lfemur 23.4151 17.5966 -22.6252
ltibia 3.18055e-015
lfoot 0.841077 8.38709
ltoes -34.1536
1454
root -26.8322 16.4649 7.80088 10.0998 -152.369 -368.784
lowerback 4.29505 -1.37546 -4.08921
upperback 4.57562 -2.24348 -3.59404
thorax 2.31424 -1.33126 -1.37037
lowerneck 10.113 11.3648 7.55934
upperneck -9.459 15.6603 -6.85731
head -3.30649 7.85998 -4.00609
rclavicle -1.41137e-014 7.15625e-015
rhumerus -36.2225 27.5135 -99.874
rradius 72.0591
rwrist 12.8522
rhand -37.0834 0.432963
rfingers 7.12502
rthumb -10.1551 -29.302
lclavicle -1.41137e-014 7.15625e-015
lhumerus -13.1804 -10.1613 73.6639
lradius 78.034
lwrist 10.3557
lhand -9.28549 12.5235
lfingers 7.12502
lthumb 16.6716 41.8275
rfemur -42.6056 -6.98577 28.8716
rtibia 27.5411
rfoot 0.506641 -24.2632
rtoes -8.74855
lfemur 24.0806 17.5043 -22.278
ltibia 3.18055e-015
lfoot 1.7726 8.50721
ltoes -34.8388
1455
root -26.9268 16.4569 7.65315 9.87341 -152.632 -368.504
lowerback 4.04861 -1.43209 -3.9742
upperback 4.47529 -2.28952 -3.52078
thorax 2.34665 -1.34482 -1.36343
lowerneck 10.1649 11.3709 7.5568
upperneck -9.29412 15.6821 -6.7688
head -3.27101 7.86992 -3.97638
rclavicle -4.96962e-016 3.18055e-014
rhumerus -36.639 27.3483 -99.8629
rradius 72.2715
rwrist 12.7586
rhand -37.0705 0.427663
rfingers 7.12502
rthumb -10.1426 -29.3079
lclavicle -4.96962e-016 3.18055e-014
lhumerus -13.5196 -10.2557 74.2292
lradius 78.0902
lwrist 10.2982
lhand -9.52196 12.4728
lfingers 7.12502
lthumb 16.4439 41.7959
rfemur -42.0692 -6.9218 29.1243
rtibia 28.1162
rfoot 0.316071 -23.0299
rtoes -8.84575
lfemur 24.7264 17.394 -21.9665
ltibia -9.54166e-015
lfoot 2.80873 8.65841
ltoes -35.5843
1456
root -27.0202 16.4489 7.50421 9.66394 -152.884 -368.273
lowerback 3.82773 -1.49414 -3.90123
upperback 4.37691 -2.34748 -3.45377
thorax 2.36843 -1.36606 -1.33885
lowerneck 10.2179 11.3838 7.5343
upperneck -9.15271 15.7099 -6.67949
head -3.24398 7.8829 -3.94514
rclavicle 6.99722e-014 4.21423e-014
rhumerus -37.0219 27.1857 -99.8537
rradius 72.4509
rwrist 12.6635
rhand -37.0655 0.462796
rfingers 7.12502
rthumb -10.1378 -29.273
lclavicle 6.99722e-014 4.21423e-014
lhumerus -13.8903 -10.3397 74.7954
lradius 78.1541
lwrist 10.2841
lhand -9.7032 12.4334
lfingers 7.12502
lthumb 16.2694 41.7708
rfemur -41.5375 -6.74391 29.2781
rtibia 28.7305
rfoot -0.313362 -22.1543
rtoes -8.7139
lfemur 25.3562 17.2675 -21.7115
ltibia -5.08889e-014
lfoot 3.96529 8.85083
ltoes -36.5581
1457
root -27.1118 16.4419 7.35452 9.48178 -153.125 -368.096
lowerback 3.63196 -1.55923 -3.87469
upperback 4.27527 -2.4138 -3.39488
thorax 2.37457 -1.39307 -1.29603
lowerneck 10.2707 11.4014 7.49875
upperneck -9.03095 15.7411 -6.59468
head -3.22326 7.8978 -3.91449
rclavicle 1.2424e-014 -4.77083e-014
rhumerus -37.3746 27.0127 -99.847
rradius 72.596
rwrist 12.5815
rhand -37.0723 0.530118
rfingers 7.12502
rthumb -10.1444 -29.2053
lclavicle 1.2424e-014 -4.77083e-014
lhumerus -14.2915 -10.4311 75.3578
lradius 78.221
lwrist 10.3058
lhand -9.82784 12.3967
lfingers 7.12502
lthumb 16.1494 41.7439
rfemur -41.0321 -6.50801 29.3638
rtibia 29.3577
rfoot -1.18807 -21.6383
rtoes -8.31553
lfemur 25.9545 17.1272 -21.5202
ltibia -2.22639e-014
lfoot 5.25259 9.11437
ltoes -37.7906
1458
root -27.2021 16.4369 7.2043 9.3057 -153.352 -367.975
lowerback 3.48524 -1.63189 -3.88752
upperback 4.17463 -2.49616 -3.34908
thorax 2.35573 -1.42967 -1.24309
lowerneck 10.3225 11.4243 7.44372
upperneck -8.91934 15.7771 -6.50178
head -3.20731 7.91495 -3.87949
rclavicle -1.09332e-014 5.1684e-014
rhumerus -37.7108 26.8457 -99.8525
rradius 72.7193
rwrist 12.5179
rhand -37.0867 0.611724
rfingers 7.12502
rthumb -10.1583 -29.123
lclavicle -1.09332e-014 5.1684e-014
lhumerus -14.7252 -10.5243 75.9053
lradius 78.28
lwrist 10.3084
lhand -9.88915 12.3555
lfingers 7.12502
lthumb 16.0904 41.7075
rfemur -40.5349 -6.27593 29.3962
rtibia 29.98
rfoot -2.15495 -21.4203
rtoes -7.75274
lfemur 24.1091 17.034 -21.3876
ltibia 4.47933
lfoot 4.60745 9.53232
ltoes -39.3244
1459
root -27.2909 16.4343 7.05418 9.12856 -153.567 -367.882
lowerback 3.38416 -1.70229 -3.9128
upperback 4.0746 -2.58004 -3.31472
thorax 2.31222 -1.46763 -1.19343
lowerneck 10.3698 11.4428 7.39675
upperneck -8.81005 15.8077 -6.40911
head -3.19112 7.92899 -3.84537
rclavicle 2.19657e-014 4.41302e-014
rhumerus -38.0282 26.6522 -99.8659
rradius 72.8261
rwrist 12.4816
rhand -37.1054 0.672467
rfingers 7.12502
rthumb -10.1764 -29.0614
lclavicle 2.19657e-014 4.41302e-014
lhumerus -15.1754 -10.6424 76.435
lradius 78.3205
lwrist 10.2856
lhand -9.80565 12.2784
lfingers 7.12502
lthumb 16.1708 41.6239
rfemur -40.044 -6.08698 29.4247
rtibia 30.5763
rfoot -3.09276 -21.4005
rtoes -6.98277
lfemur 23.0248 16.9083 -21.2742
ltibia 7.53387
lfoot 4.76034 9.97485
ltoes -40.2111
1460
root -27.378 16.434 6.90493 8.92599 -153.785 -367.786
lowerback 3.33668 -1.76958 -3.92203
upperback 3.97795 -2.66381 -3.28371
thorax 2.24146 -1.50526 -1.15415
lowerneck 10.4079 11.4605 7.35032
upperneck -8.6911 15.8366 -6.31596
head -3.17067 7.94224 -3.81006
rclavicle -7.25564e-015 -1.74931e-014
rhumerus -38.3478 26.4674 -99.8869
rradius 72.9453
rwrist 12.4596
rhand -37.123 0.70531
rfingers 7.12502
rthumb -10.1933 -29.0277
lclavicle -7.25564e-015 -1.74931e-014
lhumerus -15.6409 -10.7742 76.9458
lradius 78.3353
lwrist 10.219
lhand -9.71508 12.1986
lfingers 7.12502
lthumb 16.258 41.5369
rfemur -39.5313 -5.94228 29.4795
rtibia 31.1287
rfoot -3.90978 -21.4759
rtoes -6.14044
lfemur 22.2419 16.7779 -21.1432
ltibia 10.0338
lfoot 5.30416 10.4337
ltoes -39.6634
1461
root -27.4637 16.4354 6.75721 8.67436 -154.009 -367.643
lowerback 3.34026 -1.82709 -3.87883
upperback 3.89165 -2.73686 -3.24653
thorax 2.15058 -1.5364 -1.13588
lowerneck 10.4374 11.4737 7.32109
upperneck -8.56069 15.8601 -6.23386
head -3.14348 7.95317 -3.77895
rclavicle -5.89397e-014 -1.90833e-014
rhumerus -38.6575 26.2817 -99.9044
rradius 73.0818
rwrist 12.4459
rhand -37.1406 0.725466
rfingers 7.12502
rthumb -10.2103 -29.0067
lclavicle -5.89397e-014 -1.90833e-014
lhumerus -16.1002 -10.9069 77.4527
lradius 78.3136
lwrist 10.1299
lhand -9.51836 12.1057
lfingers 7.12502
lthumb 16.4474 41.4285
rfemur -38.9668 -5.81078 29.5835
rtibia 31.6182
rfoot -4.59278 -21.5946
rtoes -5.27099
lfemur 21.5667 16.9503 -20.8271
ltibia 12.4213
lfoot 6.00952 10.5634
ltoes -38.251
1462
root -27.5474 16.4381 6.61133 8.37579 -154.25 -367.436
lowerback 3.37483 -1.87321 -3.78207
upperback 3.81917 -2.79494 -3.19261
thorax 2.05468 -1.55902 -1.12933
lowerneck 10.4538 11.4824 7.30782
upperneck -8.41787 15.8777 -6.16821
head -3.1082 7.96181 -3.75301
rclavicle -1.49089e-015 3.53837e-014
rhumerus -38.9488 26.1143 -99.9094
rradius 73.2355
rwrist 12.427
rhand -37.1501 0.741573
rfingers 7.12502
rthumb -10.2195 -28.9902
lclavicle -1.49089e-015 3.53837e-014
lhumerus -16.5448 -11.0356 77.9609
lradius 78.254
lwrist 10.033
lhand -9.36727 12.0327
lfingers 7.12502
lthumb 16.5929 41.3433
rfemur -38.3398 -5.62766 29.7293
rtibia 32.0333
rfoot -5.18497 -21.735
rtoes -4.39334
lfemur 20.8876 17.1679 -20.4208
ltibia 14.8251
lfoot 6.84067 10.6084
ltoes -35.9732
1463
root -27.629 16.4414 6.46739 8.03527 -154.52 -367.163
lowerback 3.42456 -1.9056 -3.63735
upperback 3.76412 -2.83371 -3.12037
thorax 1.96664 -1.57135 -1.13066
lowerneck 10.4629 11.4905 7.2958
upperneck -8.27202 15.8933 -6.11027
head -3.0702 7.9699 -3.72874
rclavicle -2.50469e-014 1.23246e-014
rhumerus -39.22 25.9831 -99.8967
rradius 73.417
rwrist 12.3834
rhand -37.1415 0.751196
rfingers 7.12502
rthumb -10.2112 -28.981
lclavicle -2.50469e-014 1.23246e-014
lhumerus -16.9653 -11.1509 78.4761
lradius 78.1593
lwrist 9.95621
lhand -9.24375 11.9982
lfingers 7.12502
lthumb 16.7118 41.2988
rfemur -37.6407 -5.35327 29.8986
rtibia 32.368
rfoot -5.71026 -21.8722
rtoes -3.56767
lfemur 20.1767 17.4155 -19.9324
ltibia 17.2908
lfoot 7.76154 10.5664
ltoes -33.4756
1464
root -27.7086 16.4447 6.3253 7.67352 -154.829 -366.851
lowerback 3.47018 -1.92425 -3.47279
upperback 3.72642 -2.85283 -3.03375
thorax 1.89838 -1.57411 -1.12929
lowerneck 10.4647 11.4972 7.28947
upperneck -8.12356 15.9062 -6.0658
head -3.02886 7.97731 -3.70838
rclavicle 2.3059e-014 -4.77083e-015
rhumerus -39.4412 25.8873 -99.8674
rradius 73.5919
rwrist 12.3227
rhand -37.1098 0.752548
rfingers 7.12502
rthumb -10.1805 -28.9811
lclavicle 2.3059e-014 -4.77083e-015
lhumerus -17.3621 -11.248 78.9948
lradius 78.0354
lwrist 9.90929
lhand -9.187 12.0038
lfingers 7.12502
lthumb 16.7664 41.2998
rfemur -36.8799 -4.97018 30.0685
rtibia 32.6285
rfoot -6.2017 -21.9883
rtoes -2.80606
lfemur 19.4246 17.6841 -19.3942
ltibia 19.8156
lfoot 8.75868 10.4404
ltoes -31.4794
1465
root -27.7861 16.4474 6.18511 7.30653 -155.178 -366.518
lowerback 3.50323 -1.92727 -3.30026
upperback 3.70434 -2.85007 -2.94259
thorax 1.853 -1.56653 -1.12915
lowerneck 10.466 11.5011 7.28769
upperneck -7.98214 15.9156 -6.0234
head -2.98929 7.98275 -3.68948
rclavicle 2.49475e-014 2.22639e-014
rhumerus -39.6033 25.8104 -99.8244
rradius 73.75
rwrist 12.2439
rhand -37.0433 0.740896
rfingers 7.12502
rthumb -10.1164 -28.9959
lclavicle 2.49475e-014 2.22639e-014
lhumerus -17.734 -11.339 79.5145
lradius 77.8893
lwrist 9.89403
lhand -9.17453 12.0381
lfingers 7.12502
lthumb 16.7784 41.3331
rfemur -36.0736 -4.50125 30.2332
rtibia 32.8259
rfoot -6.68023 -22.0703
rtoes -2.0956
lfemur 18.6277 17.9526 -18.8345
ltibia 22.383
lfoot 9.83036 10.2675
ltoes -30.1061
